<svg width="67" height="67" viewBox="0 0 67 67" fill="none" xmlns="http://www.w3.org/2000/svg">
<g filter="url(#filter0_d_107_604)">
<circle cx="33.5" cy="25.5" r="17.5" fill="#5051F9"/>
</g>
<path d="M32.9781 28.0403L29.4879 31.5304C29.0654 31.9382 28.501 32.1661 27.9138 32.1661C27.3265 32.1661 26.7622 31.9382 26.3396 31.5304C26.1323 31.324 25.9679 31.0787 25.8557 30.8085C25.7435 30.5384 25.6857 30.2488 25.6857 29.9563C25.6857 29.6637 25.7435 29.3741 25.8557 29.104C25.9679 28.8338 26.1323 28.5885 26.3396 28.3821L29.8297 24.892C29.9991 24.7226 30.0943 24.4928 30.0943 24.2533C30.0943 24.0137 29.9991 23.784 29.8297 23.6146C29.6603 23.4452 29.4306 23.3501 29.1911 23.3501C28.9515 23.3501 28.7218 23.4452 28.5524 23.6146L25.0623 27.1138C24.3592 27.8791 23.9789 28.8864 24.0009 29.9254C24.0229 30.9645 24.4455 31.9548 25.1803 32.6897C25.9152 33.4245 26.9055 33.8471 27.9446 33.8691C28.9836 33.8911 29.9909 33.5108 30.7562 32.8077L34.2554 29.3176C34.4248 29.1482 34.5199 28.9185 34.5199 28.6789C34.5199 28.4394 34.4248 28.2097 34.2554 28.0403C34.086 27.8709 33.8563 27.7757 33.6167 27.7757C33.3772 27.7757 33.1474 27.8709 32.9781 28.0403ZM40.6959 17.1741C39.9392 16.4221 38.9158 16 37.849 16C36.7821 16 35.7587 16.4221 35.002 17.1741L31.5028 20.6642C31.419 20.7481 31.3524 20.8476 31.307 20.9572C31.2617 21.0668 31.2383 21.1843 31.2383 21.3029C31.2383 21.4215 31.2617 21.5389 31.307 21.6485C31.3524 21.7581 31.419 21.8577 31.5028 21.9415C31.5867 22.0254 31.6863 22.0919 31.7959 22.1373C31.9054 22.1827 32.0229 22.2061 32.1415 22.2061C32.2601 22.2061 32.3776 22.1827 32.4871 22.1373C32.5967 22.0919 32.6963 22.0254 32.7802 21.9415L36.2703 18.4514C36.6929 18.0436 37.2572 17.8157 37.8445 17.8157C38.4317 17.8157 38.9961 18.0436 39.4186 18.4514C39.6259 18.6578 39.7903 18.9031 39.9025 19.1733C40.0147 19.4434 40.0725 19.733 40.0725 20.0255C40.0725 20.3181 40.0147 20.6077 39.9025 20.8778C39.7903 21.148 39.6259 21.3933 39.4186 21.5997L35.9285 25.0898C35.8442 25.1735 35.7772 25.273 35.7316 25.3826C35.6859 25.4922 35.6624 25.6098 35.6624 25.7285C35.6624 25.8473 35.6859 25.9648 35.7316 26.0744C35.7772 26.1841 35.8442 26.2835 35.9285 26.3672C36.0121 26.4515 36.1116 26.5184 36.2212 26.5641C36.3308 26.6097 36.4484 26.6332 36.5671 26.6332C36.6859 26.6332 36.8035 26.6097 36.9131 26.5641C37.0227 26.5184 37.1222 26.4515 37.2058 26.3672L40.6959 22.868C41.4479 22.1113 41.87 21.0879 41.87 20.021C41.87 18.9542 41.4479 17.9308 40.6959 17.1741ZM30.0276 27.8424C30.1117 27.9257 30.2114 27.9917 30.321 28.0365C30.4305 28.0812 30.5479 28.1039 30.6663 28.1032C30.7847 28.1039 30.902 28.0812 31.0116 28.0365C31.1212 27.9917 31.2209 27.9257 31.3049 27.8424L35.7306 23.4167C35.9 23.2474 35.9951 23.0176 35.9951 22.7781C35.9951 22.5385 35.9 22.3088 35.7306 22.1394C35.5612 21.97 35.3315 21.8749 35.0919 21.8749C34.8524 21.8749 34.6226 21.97 34.4533 22.1394L30.0276 26.5651C29.9433 26.6487 29.8764 26.7482 29.8307 26.8578C29.7851 26.9674 29.7615 27.085 29.7615 27.2037C29.7615 27.3225 29.7851 27.44 29.8307 27.5497C29.8764 27.6593 29.9433 27.7588 30.0276 27.8424Z" fill="white"/>
<defs>
<filter id="filter0_d_107_604" x="0" y="0" width="67" height="67" filterUnits="userSpaceOnUse" color-interpolation-filters="sRGB">
<feFlood flood-opacity="0" result="BackgroundImageFix"/>
<feColorMatrix in="SourceAlpha" type="matrix" values="0 0 0 0 0 0 0 0 0 0 0 0 0 0 0 0 0 0 127 0" result="hardAlpha"/>
<feOffset dy="8"/>
<feGaussianBlur stdDeviation="8"/>
<feComposite in2="hardAlpha" operator="out"/>
<feColorMatrix type="matrix" values="0 0 0 0 0.0613021 0 0 0 0 0.0617529 0 0 0 0 0.1375 0 0 0 0.2 0"/>
<feBlend mode="normal" in2="BackgroundImageFix" result="effect1_dropShadow_107_604"/>
<feBlend mode="normal" in="SourceGraphic" in2="effect1_dropShadow_107_604" result="shape"/>
</filter>
</defs>
</svg>
