<svg width="18" height="18" viewBox="0 0 18 18" fill="none" xmlns="http://www.w3.org/2000/svg">
<path d="M8.97805 12.0403L5.48791 15.5304C5.06535 15.9382 4.50101 16.1661 3.91375 16.1661C3.32649 16.1661 2.76215 15.9382 2.33959 15.5304C2.13235 15.324 1.9679 15.0787 1.8557 14.8085C1.74349 14.5384 1.68573 14.2488 1.68573 13.9563C1.68573 13.6637 1.74349 13.3741 1.8557 13.104C1.9679 12.8338 2.13235 12.5885 2.33959 12.3821L5.82973 8.89195C5.99911 8.72257 6.09427 8.49284 6.09427 8.25329C6.09427 8.01375 5.99911 7.78401 5.82973 7.61463C5.66035 7.44525 5.43061 7.35009 5.19107 7.35009C4.95153 7.35009 4.72179 7.44525 4.55241 7.61463L1.06227 11.1138C0.359166 11.8791 -0.0210931 12.8864 0.000903782 13.9254C0.0229006 14.9645 0.445453 15.9548 1.18032 16.6897C1.91518 17.4245 2.90554 17.8471 3.94456 17.8691C4.98358 17.8911 5.99093 17.5108 6.75624 16.8077L10.2554 13.3176C10.4248 13.1482 10.5199 12.9185 10.5199 12.6789C10.5199 12.4394 10.4248 12.2097 10.2554 12.0403C10.086 11.8709 9.85625 11.7757 9.61671 11.7757C9.37717 11.7757 9.14743 11.8709 8.97805 12.0403ZM16.6959 1.17406C15.9392 0.422072 14.9158 0 13.849 0C12.7821 0 11.7587 0.422072 11.002 1.17406L7.50284 4.6642C7.41897 4.74807 7.35244 4.84764 7.30705 4.95722C7.26166 5.06681 7.2383 5.18425 7.2383 5.30286C7.2383 5.42147 7.26166 5.53892 7.30705 5.6485C7.35244 5.75809 7.41897 5.85765 7.50284 5.94152C7.58671 6.02539 7.68628 6.09192 7.79586 6.13731C7.90544 6.1827 8.02289 6.20607 8.1415 6.20607C8.26011 6.20607 8.37756 6.1827 8.48714 6.13731C8.59672 6.09192 8.69629 6.02539 8.78016 5.94152L12.2703 2.45138C12.6929 2.04356 13.2572 1.81565 13.8445 1.81565C14.4317 1.81565 14.9961 2.04356 15.4186 2.45138C15.6259 2.65781 15.7903 2.90313 15.9025 3.17327C16.0147 3.4434 16.0725 3.73303 16.0725 4.02555C16.0725 4.31806 16.0147 4.60769 15.9025 4.87782C15.7903 5.14796 15.6259 5.39328 15.4186 5.59971L11.9285 9.08984C11.8442 9.17347 11.7772 9.27296 11.7316 9.38257C11.6859 9.49219 11.6624 9.60976 11.6624 9.7285C11.6624 9.84725 11.6859 9.96482 11.7316 10.0744C11.7772 10.1841 11.8442 10.2835 11.9285 10.3672C12.0121 10.4515 12.1116 10.5184 12.2212 10.5641C12.3308 10.6097 12.4484 10.6332 12.5671 10.6332C12.6859 10.6332 12.8035 10.6097 12.9131 10.5641C13.0227 10.5184 13.1222 10.4515 13.2058 10.3672L16.6959 6.86803C17.4479 6.11134 17.87 5.08786 17.87 4.02105C17.87 2.95424 17.4479 1.93076 16.6959 1.17406ZM6.02762 11.8424C6.11168 11.9257 6.21136 11.9917 6.32095 12.0365C6.43055 12.0812 6.5479 12.1039 6.66628 12.1032C6.78467 12.1039 6.90202 12.0812 7.01162 12.0365C7.12121 11.9917 7.22089 11.9257 7.30494 11.8424L11.7306 7.41674C11.9 7.24735 11.9951 7.01762 11.9951 6.77808C11.9951 6.53853 11.9 6.3088 11.7306 6.13942C11.5612 5.97003 11.3315 5.87488 11.0919 5.87488C10.8524 5.87488 10.6226 5.97003 10.4533 6.13942L6.02762 10.5651C5.94331 10.6487 5.87639 10.7482 5.83073 10.8578C5.78506 10.9674 5.76155 11.085 5.76155 11.2037C5.76155 11.3225 5.78506 11.44 5.83073 11.5497C5.87639 11.6593 5.94331 11.7588 6.02762 11.8424Z" fill="#95A4BB"/>
</svg>
