<svg width="36" height="36" viewBox="0 0 36 36" fill="none" xmlns="http://www.w3.org/2000/svg">
<rect width="36" height="36" rx="9" fill="#F7F7F9"/>
<rect width="36" height="36" rx="9" fill="#F7F7F9"/>
<path d="M11 8C9.34315 8 8 9.34315 8 11V25C8 26.6569 9.34315 28 11 28H18C18.5523 28 19 27.5523 19 27V22C19 20.3431 20.3431 19 22 19H27C27.5523 19 28 18.5523 28 18V11C28 9.34315 26.6569 8 25 8H11Z" fill="#EFBB55"/>
<path d="M27.7111 22.0418C27.9612 21.5139 27.4899 21 26.9058 21H22C21.4477 21 21 21.4477 21 22V26.9058C21 27.4899 21.5139 27.9612 22.0418 27.7111C22.3496 27.5653 22.6332 27.3668 22.8787 27.1213L27.1213 22.8787C27.3668 22.6332 27.5653 22.3496 27.7111 22.0418Z" fill="#EFBB55"/>
</svg>
