<svg width="20" height="20" viewBox="0 0 20 20" fill="none" xmlns="http://www.w3.org/2000/svg">
<path d="M17.8667 3.41669V9.08335C17.8667 9.7027 17.7344 10.1233 17.4502 10.3907C17.1652 10.6588 16.7165 10.7834 16.0584 10.7834H12.6917C12.0336 10.7834 11.5849 10.6588 11.2999 10.3907C11.0157 10.1233 10.8834 9.7027 10.8834 9.08335V3.41669C10.8834 2.79734 11.0157 2.37674 11.2999 2.10935C11.5849 1.84124 12.0336 1.71669 12.6917 1.71669H16.0584C16.7165 1.71669 17.1652 1.84124 17.4502 2.10935C17.7344 2.37674 17.8667 2.79734 17.8667 3.41669ZM9.11671 10.9167V16.5834C9.11671 17.2027 8.98438 17.6233 8.70016 17.8907C8.41516 18.1588 7.96652 18.2834 7.30837 18.2834H3.94171C3.28356 18.2834 2.83492 18.1588 2.54993 17.8907C2.2657 17.6233 2.13337 17.2027 2.13337 16.5834V10.9167C2.13337 10.2973 2.2657 9.87674 2.54993 9.60935C2.83492 9.34124 3.28356 9.21669 3.94171 9.21669H7.30837C7.96652 9.21669 8.41516 9.34124 8.70016 9.60935C8.98438 9.87674 9.11671 10.2973 9.11671 10.9167ZM17.8667 14.25V16.5834C17.8667 17.2027 17.7344 17.6233 17.4502 17.8907C17.1652 18.1588 16.7165 18.2834 16.0584 18.2834H12.6917C12.0336 18.2834 11.5849 18.1588 11.2999 17.8907C11.0157 17.6233 10.8834 17.2027 10.8834 16.5834V14.25C10.8834 13.6307 11.0157 13.2101 11.2999 12.9427C11.5849 12.6746 12.0336 12.55 12.6917 12.55H16.0584C16.7165 12.55 17.1652 12.6746 17.4502 12.9427C17.7344 13.2101 17.8667 13.6307 17.8667 14.25ZM9.11671 3.41669V5.75002C9.11671 6.36936 8.98438 6.78996 8.70016 7.05735C8.41516 7.32546 7.96652 7.45002 7.30837 7.45002H3.94171C3.28356 7.45002 2.83492 7.32546 2.54993 7.05735C2.2657 6.78996 2.13337 6.36936 2.13337 5.75002V3.41669C2.13337 2.79734 2.2657 2.37674 2.54993 2.10935C2.83492 1.84124 3.28356 1.71669 3.94171 1.71669H7.30837C7.96652 1.71669 8.41516 1.84124 8.70016 2.10935C8.98438 2.37674 9.11671 2.79734 9.11671 3.41669Z" fill="white" stroke="#7E92A2" stroke-width="0.1"/>
</svg>
