<svg width="46" height="46" viewBox="0 0 46 46" fill="none" xmlns="http://www.w3.org/2000/svg">
<rect width="46" height="46" rx="4" fill="#092C4C"/>
<path d="M24.47 18.4099L26.93 17.1999C27.23 17.0499 27.31 16.6599 27.08 16.4199C26.19 15.4399 25.29 14.6199 24.57 13.9999C24.24 13.7199 23.75 13.9499 23.75 14.3799V17.9599C23.75 18.3299 24.14 18.5699 24.47 18.4099Z" fill="white"/>
<path d="M23.75 30.7399V32.3899C23.75 32.6899 24.02 32.9399 24.32 32.8899C27.05 32.4399 29.33 30.6099 30.41 28.1499C30.6 27.7299 30.14 27.3099 29.72 27.5099L24.03 30.2999C23.86 30.3799 23.75 30.5499 23.75 30.7399Z" fill="white"/>
<path d="M22.25 14.3599C22.25 13.9299 21.76 13.6999 21.43 13.9699C19.07 15.9499 14.88 20.1199 14.9 24.8999C14.9 28.9199 17.84 32.2499 21.68 32.8899C21.98 32.9399 22.25 32.6899 22.25 32.3899V14.3599Z" fill="white"/>
<path d="M24.44 23.4699L29.73 21.2499C30 21.1299 30.13 20.8199 30 20.5599C29.63 19.8299 29.2 19.1199 28.73 18.4599C28.59 18.2599 28.33 18.1999 28.11 18.2999L24.02 20.2899C23.85 20.3699 23.74 20.5499 23.74 20.7399V23.0099C23.75 23.3599 24.11 23.6099 24.44 23.4699Z" fill="white"/>
<path d="M30.83 25.3099C30.99 25.2299 31.09 25.0799 31.09 24.9099C31.09 24.2699 31.01 23.6399 30.87 23.0199C30.8 22.7199 30.47 22.5599 30.19 22.6799L24.05 25.2999C23.87 25.3799 23.75 25.5599 23.75 25.7599V27.9599C23.75 28.3299 24.14 28.5699 24.47 28.4099L30.37 25.5399L30.83 25.3099Z" fill="white"/>
</svg>
